<svg width="61" height="61" viewBox="0 0 61 61" fill="none" xmlns="http://www.w3.org/2000/svg">
<rect width="61" height="61" rx="11" fill="#D9D9D9"/>
<rect x="2" y="2" width="57" height="57" rx="10" fill="white"/>
<path d="M43.217 21.0967C44.8983 23.8872 45.6167 27.1526 45.2618 30.3911V32.25C45.2596 34.2071 45.7725 36.1304 46.7489 37.8266" stroke="#E77F23" stroke-width="5.05859" stroke-linecap="round" stroke-linejoin="round"/>
<path d="M22.9553 28.5322C22.9553 26.5602 23.7387 24.6689 25.1331 23.2745C26.5276 21.8801 28.4188 21.0967 30.3908 21.0967C32.3629 21.0967 34.2541 21.8801 35.6486 23.2745C37.043 24.6689 37.8264 26.5602 37.8264 28.5322V30.3911C37.8264 34.4132 39.1309 38.3267 41.5441 41.5444" stroke="#E77F23" stroke-width="5.05859" stroke-linecap="round" stroke-linejoin="round"/>
<path d="M30.3909 28.5322V32.25C30.385 37.5653 32.0067 42.7549 35.0381 47.121" stroke="#E77F23" stroke-width="5.05859" stroke-linecap="round" stroke-linejoin="round"/>
<path d="M22.9553 35.9675C23.4102 39.8523 24.5427 43.6272 26.3013 47.1208" stroke="#E77F23" stroke-width="5.05859" stroke-linecap="round" stroke-linejoin="round"/>
<path d="M17.1929 43.4035C15.9386 39.1844 15.3737 34.7905 15.5199 30.3913V28.5324C15.5128 25.9186 16.1947 23.349 17.497 21.0827C18.7993 18.8164 20.6759 16.9333 22.9378 15.6233C25.1997 14.3133 27.7669 13.6226 30.3808 13.6209C32.9946 13.6191 35.5628 14.3063 37.8265 15.6132" stroke="#E77F23" stroke-width="5.05859" stroke-linecap="round" stroke-linejoin="round"/>
</svg>
