<svg width="31" height="29" viewBox="0 0 31 29" fill="none" xmlns="http://www.w3.org/2000/svg">
<path d="M28.2284 7.11229H24.4309C23.9677 5.06751 22.1153 3.55615 19.8923 3.55615C17.6693 3.55615 15.8168 5.06751 15.3537 7.11229H2.2937V8.89036H15.3537C15.8168 10.9351 17.6693 12.4465 19.8923 12.4465C22.1153 12.4465 23.9677 10.9351 24.4309 8.89036H28.2284V7.11229ZM19.8923 10.6684C18.3177 10.6684 17.1136 9.51268 17.1136 8.00132C17.1136 6.48997 18.3177 5.33422 19.8923 5.33422C21.4669 5.33422 22.671 6.48997 22.671 8.00132C22.671 9.51268 21.4669 10.6684 19.8923 10.6684Z" fill="#00C5E3"/>
<path d="M2.2937 21.3369H6.09129C6.55441 23.3817 8.40689 24.893 10.6299 24.893C12.8528 24.893 14.7053 23.3817 15.1684 21.3369H28.2284V19.5588H15.1684C14.7053 17.514 12.8528 16.0027 10.6299 16.0027C8.40689 16.0027 6.55441 17.514 6.09129 19.5588H2.2937V21.3369ZM10.6299 17.7808C12.2045 17.7808 13.4086 18.9365 13.4086 20.4479C13.4086 21.9592 12.2045 23.115 10.6299 23.115C9.05526 23.115 7.85115 21.9592 7.85115 20.4479C7.85115 18.9365 9.05526 17.7808 10.6299 17.7808Z" fill="#00C5E3"/>
</svg>
