<svg width="23" height="23" viewBox="0 0 23 23" fill="none" xmlns="http://www.w3.org/2000/svg">
<circle cx="11.5" cy="11.5" r="11.5" fill="#1AB5ED"/>
<path d="M13.5029 10.8753L10.1849 10.0017C9.80086 9.90218 9.53358 9.57874 9.53358 9.21937C9.53358 8.76877 9.93911 8.40386 10.4399 8.40386H12.4768C12.8516 8.40386 13.2203 8.50615 13.5275 8.69413C13.7149 8.80747 13.9668 8.77983 14.1266 8.63884L15.1957 7.69894C15.4138 7.50819 15.3831 7.19028 15.1404 7.02165C14.3877 6.49088 13.4476 6.19509 12.4829 6.19233V4.8654C12.4829 4.62213 12.2617 4.4231 11.9914 4.4231H11.0083C10.7379 4.4231 10.5167 4.62213 10.5167 4.8654V6.19233H10.4399C8.48287 6.19233 6.90988 7.70447 7.09115 9.49858C7.22018 10.773 8.30161 11.8096 9.66568 12.169L12.8147 12.9983C13.1988 13.1006 13.466 13.4213 13.466 13.7807C13.466 14.2313 13.0605 14.5962 12.5597 14.5962H10.5228C10.148 14.5962 9.77936 14.4939 9.47213 14.3059C9.28473 14.1926 9.0328 14.2202 8.87305 14.3612L7.80391 15.3011C7.58578 15.4918 7.6165 15.8098 7.85921 15.9784C8.61191 16.5092 9.55201 16.8049 10.5167 16.8077V18.1346C10.5167 18.3779 10.7379 18.5769 11.0083 18.5769H11.9914C12.2617 18.5769 12.4829 18.3779 12.4829 18.1346V16.8022C13.9146 16.7773 15.2572 16.0116 15.7303 14.7924C16.3908 13.0896 15.2817 11.3424 13.5029 10.8753Z" fill="white"/>
</svg>
