<svg width="42" height="40" viewBox="0 0 42 40" fill="none" xmlns="http://www.w3.org/2000/svg">
<ellipse cx="20.575" cy="20" rx="20.575" ry="20" fill="#00C5E3"/>
<path d="M30.7647 17.5238V27.4286C30.7647 28.9013 29.5365 30.0952 28.0214 30.0952H12.933C11.4179 30.0952 10.1897 28.9013 10.1897 27.4286V12.7619C10.1897 11.2891 11.4179 10.0952 12.933 10.0952H23.1225" stroke="#4F4F4F" stroke-width="2" stroke-linecap="round" stroke-linejoin="round"/>
<path fill-rule="evenodd" clip-rule="evenodd" d="M29.3932 12.7619C30.1507 12.7619 30.7648 12.1649 30.7648 11.4285C30.7648 10.6922 30.1507 10.0952 29.3932 10.0952C28.6356 10.0952 28.0215 10.6922 28.0215 11.4285C28.0215 12.1649 28.6356 12.7619 29.3932 12.7619Z" stroke="#4F4F4F" stroke-width="2" stroke-linecap="round"/>
<path d="M15.6765 23.4285L18.6228 19.6099C19.2456 18.8027 20.4325 18.7179 21.1636 19.4284V19.4284C21.8949 20.1389 23.0818 20.054 23.7046 19.2467L26.6498 15.4285" stroke="#4F4F4F" stroke-width="2" stroke-linecap="round" stroke-linejoin="round"/>
</svg>
