<svg width="21" height="20" viewBox="0 0 21 20" fill="none" xmlns="http://www.w3.org/2000/svg">
<path d="M11.5847 1.52141V1.54164C11.5847 2.21931 12.0554 2.78572 12.7145 2.98801C15.696 3.88821 17.8616 6.56856 17.8616 9.74452C17.8616 10.2705 17.7988 10.7661 17.6837 11.2516C17.5373 11.8989 17.8093 12.5665 18.4056 12.9104L18.416 12.9205C19.3157 13.4262 20.4874 12.9711 20.728 12.0001C20.9059 11.2718 21 10.5132 21 9.74452C21 5.19298 17.8825 1.32923 13.5933 0.0649169C12.5994 -0.228404 11.5847 0.509956 11.5847 1.52141ZM9.42959 16.7438C6.3016 16.3088 3.75945 13.851 3.29914 10.8369C2.73422 7.19566 5.03575 3.98935 8.35206 2.98801C9.02159 2.79584 9.49236 2.21931 9.49236 1.54164V1.52141C9.49236 0.509956 8.47759 -0.228404 7.47329 0.0649169C2.75514 1.46072 -0.540242 5.99203 0.171141 11.1504C0.788372 15.5806 4.49175 19.1611 9.0739 19.7579C12.3588 20.1827 15.3927 19.1409 17.5791 17.1989C18.3533 16.5111 18.2173 15.2873 17.3071 14.7816C16.7004 14.4377 15.9471 14.5489 15.4241 15.0041C13.8862 16.3594 11.7521 17.0775 9.42959 16.7438Z" fill="#00C5E3"/>
</svg>
